<svg xmlns="http://www.w3.org/2000/svg" xmlns:xlink="http://www.w3.org/1999/xlink" version="1.1" x="0px" y="0px" viewBox="0 0 100 125" enable-background="new 0 0 100 100" xml:space="preserve"><g><path fill="#000000" d="M50,25c-13.807,0-25,11.193-25,25c0,13.807,11.193,25,25,25c13.807,0,25-11.193,25-25   C75,36.193,63.807,25,50,25z M65.597,52.829c-0.941,0.887-2.425,0.844-3.313-0.099l-0.006-0.007v10.823   c0,1.092-0.747,2.009-1.758,2.269c-0.038,0.01-0.075,0.019-0.113,0.026c-0.076,0.016-0.154,0.027-0.233,0.036   c-0.078,0.008-0.158,0.012-0.239,0.012h-6.964c-1.294,0-2.344-1.049-2.344-2.343c0-1.295,1.05-2.344,2.344-2.344h4.621V47.834   c0-0.027,0.001-0.054,0.002-0.08L50,39.699l-7.319,7.765v0.55v0.123v15.589c0,1.294-1.049,2.344-2.344,2.344   c-1.294,0-2.343-1.05-2.343-2.344v-11.29l-0.279,0.295c-0.887,0.942-2.371,0.985-3.312,0.099c-0.942-0.888-0.986-2.371-0.098-3.313   l3.689-3.913V39.47c0-1.294,1.049-2.343,2.343-2.343c1.295,0,2.344,1.049,2.344,2.343v1.162l5.453-5.786   c0.075-0.097,0.158-0.19,0.251-0.277c0.455-0.429,1.036-0.64,1.615-0.638c0.579-0.002,1.16,0.208,1.615,0.638   c0.093,0.087,0.176,0.18,0.251,0.277l13.828,14.67C66.582,50.458,66.539,51.941,65.597,52.829z"/></g><text x="0" y="115" fill="#000000" font-size="5px" font-weight="bold" font-family="'Helvetica Neue', Helvetica, Arial-Unicode, Arial, Sans-serif">Created by asianson.design</text><text x="0" y="120" fill="#000000" font-size="5px" font-weight="bold" font-family="'Helvetica Neue', Helvetica, Arial-Unicode, Arial, Sans-serif">from the Noun Project</text></svg>